<svg width="120" height="120" version="1.1" viewBox="0 0 31.75 31.75" xmlns="http://www.w3.org/2000/svg">
 <g>
  <g>
   <rect x="-.51031" y="-.89304" width="33.17" height="33.553" fill="#418af7" stroke-width=".27823"/>
   <rect x="-.51031" y="-.89304" width="33.17" height="33.553" fill="#418af7" stroke-width=".27823"/>
   <path d="m15.905 7.9948 0.21263 15.054 6.5665-2.0335 1.5134 3.2667 1.8286 0.46778 2.7216-2.7216 0.97809-6.549-1.701-4.125-4.5928-2.509z" fill="#1c1e20"/>
  </g>
  <path d="m16.013 13.316s-0.57396-0.77209-1.0051-0.83763c-0.6126-0.09311-1.7171 0.71199-1.7171 0.71199" fill="none" stroke="#1c1e20" stroke-width=".317"/>
  <g>
   <path d="m16.013 13.316 1.2164 1.9745-2.7171 0.03109z" fill="#1c1e20"/>
   <ellipse transform="scale(-1)" cx="-10.174" cy="-16.497" rx="1.1308" ry="1.2983" fill="#1c1e20"/>
   <ellipse transform="scale(-1)" cx="-9.5026" cy="-17.267" rx=".45965" ry=".52775" fill="#418af7"/>
   <circle transform="scale(-1)" cx="-22.683" cy="-15.942" r="1.1727" fill="#418af7"/>
   <ellipse transform="scale(-1)" cx="-22.068" cy="-16.67" rx=".45965" ry=".52775" fill="#1c1e20"/>
  </g>
  <path d="m5.0485 14.899s-1.3435 0.79521-2.0941 0.83763c-0.89606 0.05066-2.5966-0.71198-2.5966-0.71198" fill="none" stroke="#1c1e20" stroke-width=".63316"/>
  <path d="m5.8024 13.601s-1.592 0.39513-2.3872 0.29317c-0.7894-0.10122-2.2197-0.8795-2.2197-0.8795" fill="none" stroke="#1c1e20" stroke-width=".63316"/>
  <g fill="none">
   <path d="m22.684 21.015s0.76663 4.3862 3.5389 3.5389c2.7723-0.84726 4.4598-8.6341 2.3544-12.201-2.3045-3.9044-8.4095-4.4312-12.937-4.1981-4.2815 0.22042-9.5242 1.5477-11.761 5.205-0.73257 1.1977 0.23692 4.2053 0.23692 4.2053s-0.85285 6.1365 1.3623 6.989c1.474 0.56731 3.7907-2.843 3.7907-2.843s4.47 1.3004 6.7521 1.1846c2.3049-0.11695 6.6633-1.8805 6.6633-1.8805z" stroke="#1c1e20" stroke-width="1.2663"/>
   <path d="m19.063 12.944s-1.1176-0.63645-1.71-0.54954c-0.53638 0.07869-1.3402 0.92139-1.3402 0.92139" stroke="#418af7" stroke-width=".317"/>
  </g>
  <path d="m30.949 10.999s-1.4899 1.0593-2.3454 1.3402c-0.92132 0.30254-2.8898 0.33504-2.8898 0.33504" fill="none" stroke="#418af7" stroke-width=".63316"/>
  <path d="m31.903 14.571s-1.7781 0.74705-2.7223 0.79575c-0.85045 0.0439-2.5129-0.46069-2.5129-0.46069" fill="none" stroke="#418af7" stroke-width=".63316"/>
  <path d="m16.013 13.316v2.0045l1.2164-0.03z" fill="#418af7"/>
 </g>
 <g display="none">
  <g>
   <path d="m-13.386 8.851 0.88422-1.0716-1.717 0.052807z" display="inline"/>
   <path d="m-11.951 7.1596s0.68382-3.9124 3.1566-3.1567c2.4728 0.75573 3.5139 7.4698 2.1 10.883-0.82992 2.0036-5.3887 3.6453-5.3887 3.6453s3.824 3.8006 3.3812 6.0755c-0.42355 2.1759-3.0518 3.5445-5.1774 4.1736-3.6159 1.0703-8.0828 0.87973-11.253-1.1623-0.90902-0.58552-1.4981-1.7278-1.6378-2.8-0.30688-2.3556 1.9019-6.868 1.9019-6.868s-3.2112-2.2359-3.8567-3.9623c-0.43859-1.173 0.21133-3.751 0.21133-3.751s-0.76072-5.4736 1.2151-6.234c1.3148-0.50603 3.3812 2.5359 3.3812 2.5359s3.9871-1.1599 6.0227-1.0566c2.0559 0.10432 5.9435 1.6774 5.9435 1.6774z" display="inline" fill="#fff" stroke="#000" stroke-width="1.1295"/>
   <circle transform="scale(-1,1)" cx="15.079" cy="12.127" r="1.046" display="inline"/>
   <ellipse transform="scale(-1,1)" cx="23.26" cy="12.015" rx="1.0086" ry="1.1581" display="inline"/>
  </g>
  <g fill="#d9c9b4" stroke="#000" stroke-width="1.1295">
   <path d="m-13.248 25.576s-0.19131 3.1754-1.3822 3.3248c-1.0502 0.1317-1.9052-2.5403-1.9052-2.5403" display="inline"/>
   <path d="m-19.823 25.912s0.0136 2.6646-0.97129 2.8391c-0.99383 0.17617-1.9052-2.3535-1.9052-2.3535" display="inline"/>
   <path d="m-25.912 20.009c-0.33621-0.14943-1.8665-1.788-3.0633-1.9052-1.1923-0.11674-3.3621 1.2701-3.3621 1.2701s2.3663 0.90578 3.4369 1.569c0.79024 0.48956 2.1667 1.7558 2.1667 1.7558z" display="inline"/>
  </g>
  <g fill="none" stroke="#000">
   <g stroke-width=".56477">
    <path d="m-5.3287 15.975s-1.3289-0.94485-2.092-1.1954c-0.82179-0.26986-2.5776-0.29885-2.5776-0.29885" display="inline"/>
    <path d="m-3.9465 13.472s-1.5861-0.66635-2.4282-0.70978c-0.75858-0.03916-2.2414 0.41092-2.2414 0.41092" display="inline"/>
    <path d="m-27.369 12.762s-1.1983-0.70931-1.8679-0.74714c-0.79927-0.04519-2.3161 0.63507-2.3161 0.63507" display="inline"/>
    <path d="m-26.697 13.92s-1.42-0.35245-2.1294-0.2615c-0.70412 0.09029-1.9799 0.7845-1.9799 0.7845" display="inline"/>
   </g>
   <path d="m-16.692 13.542s-0.99687 0.56769-1.5252 0.49018c-0.47844-0.07019-1.1954-0.82186-1.1954-0.82186s-0.51196 0.68869-0.89656 0.74715c-0.54642 0.08305-1.5316-0.63507-1.5316-0.63507" display="inline" stroke-width=".28238"/>
  </g>
  <path d="m-19.412 13.21 0.71913-1.1861-1.6064-0.01868z" display="inline"/>
  <g fill="#d9c9b4">
   <path d="m-24.167 17.778s3.1891-1.1793 4.8506-1.1503c2.1478 0.03748 6.2148 1.7049 6.2148 1.7049s-3.9455 0.90576-5.9381 0.78198c-1.7628-0.10951-5.1273-1.3367-5.1273-1.3367z" display="inline"/>
   <path d="m-24.312 7.2134s3.985-1.3187 6.0407-1.2561c2.329 0.070984 6.7444 1.8372 6.7444 1.8372s-6.6915 0.80843-6.9031 0.75551c-0.21165-0.052912-5.882-1.3367-5.882-1.3367z" display="inline"/>
   <path d="m-26.099 22.773s4.8056-0.92958 7.3092-0.90672c3.2365 0.02956 9.365 1.344 9.365 1.344s-5.9453 0.71398-8.9479 0.6164c-2.6564-0.08632-7.7262-1.0536-7.7262-1.0536z" display="inline"/>
  </g>
  <ellipse transform="scale(-1,1)" cx="23.859" cy="11.328" rx=".41" ry=".47074" display="inline" fill="#fff"/>
  <ellipse transform="scale(-1,1)" cx="15.627" cy="11.477" rx=".41" ry=".47074" display="inline" fill="#fff"/>
 </g>
</svg>
